<svg width="116" height="37" viewBox="0 0 116 37" fill="none" xmlns="http://www.w3.org/2000/svg">
<path d="M97.5088 32.2575C97.4974 32.1033 97.5177 31.9483 97.5684 31.8026C97.6191 31.6569 97.6991 31.5236 97.8032 31.4114C97.9073 31.2991 98.0332 31.2103 98.1729 31.1508C98.3125 31.0913 98.4628 31.0623 98.6141 31.0657C98.8677 31.0694 99.1106 31.1709 99.2941 31.35C99.4775 31.529 99.5879 31.7724 99.6032 32.0312C99.6136 32.1827 99.5939 32.3349 99.5452 32.4784C99.4965 32.622 99.4199 32.754 99.3199 32.8665C99.22 32.979 99.0988 33.0696 98.9637 33.1329C98.8286 33.1962 98.6823 33.2309 98.5337 33.2349C98.2723 33.2396 98.0192 33.1403 97.828 32.958C97.6368 32.7756 97.5224 32.5245 97.5088 32.2575Z" fill="white"/>
<path d="M107.326 29.2781C107.472 31.3637 106.112 33.2347 104.177 33.2347C103.784 33.2372 103.397 33.1339 103.056 32.9351C102.714 32.7364 102.43 32.4493 102.232 32.1026L101.828 35.1407H100.125L101.214 26.9293H102.915L102.809 27.7277C103.068 27.4323 103.385 27.1958 103.739 27.0336C104.093 26.8714 104.476 26.7871 104.864 26.7861C106.206 26.7874 107.225 27.848 107.326 29.2781ZM105.683 29.4569C105.666 29.1282 105.525 28.8189 105.289 28.5943C105.054 28.3697 104.742 28.2474 104.42 28.2531C103.961 28.2716 103.522 28.4492 103.175 28.7567C102.828 29.0643 102.594 29.4834 102.511 29.9453L102.476 30.2795C102.469 30.3789 102.468 30.4787 102.474 30.5783C102.497 30.9098 102.645 31.2193 102.887 31.4415C103.128 31.6637 103.445 31.7814 103.77 31.7699C104.901 31.7689 105.768 30.6727 105.683 29.4569Z" fill="white"/>
<path d="M111.631 29.6596L113.458 33.0917H111.558L110.392 30.7797L109.517 31.6015L109.319 33.0912H107.617L108.721 24.7607H110.423L109.793 29.5515L112.36 26.9298H114.353L111.631 29.6596Z" fill="white"/>
<path d="M72.3238 5.27197L72.3198 5.30559L72.3476 5.27197H72.3238Z" fill="white"/>
<path d="M18.6405 12.2882C18.5948 11.6251 18.4691 10.9703 18.2663 10.3388C17.933 9.28809 17.3621 8.33255 16.5999 7.5497C16.0137 6.95197 15.3172 6.47913 14.551 6.15853C13.7847 5.83793 12.9637 5.67595 12.1358 5.682C10.7093 5.66915 9.30752 6.06235 8.08726 6.81758C7.31101 7.32145 6.63562 7.97164 6.09712 8.73354L5.815 9.128L5.9546 8.08958L7.03579 0.00146484H3.06159L2.922 1.0459L0 22.7512L3.9781 22.749L4.38543 19.5221C4.38543 19.5221 4.39786 19.4163 4.44853 19.5221L4.50797 19.6377C4.90918 20.4044 5.46073 21.0783 6.12817 21.6174C6.79561 22.1564 7.56462 22.549 8.38716 22.7707C8.90437 22.8723 9.42904 22.9291 9.95559 22.9407H10.018C10.0862 22.944 10.1517 22.944 10.208 22.944C11.3045 22.9417 12.3886 22.7059 13.3911 22.2517C14.3935 21.7974 15.2925 21.1347 16.0305 20.3058C17.904 18.2481 18.8544 15.3273 18.6405 12.2882ZM9.06735 19.6447C6.88426 19.6447 5.19109 18.0813 5.03956 15.9284C5.01558 15.6671 5.00867 15.4045 5.01885 15.1423L5.02177 15.1116L5.08414 14.6564L5.17501 13.9658C5.17891 13.9427 5.18475 13.9205 5.18889 13.8981C5.88322 10.9999 8.22296 8.98233 10.8909 8.98233C11.722 8.96614 12.5359 9.22532 13.2109 9.72108C13.886 10.2168 14.3861 10.9226 14.6363 11.7329C14.7376 12.056 14.8004 12.3904 14.8234 12.729C14.8353 12.8956 14.8412 13.0596 14.8412 13.2237C14.8481 14.917 14.2285 16.5503 13.1066 17.7961C12.5959 18.3742 11.973 18.8372 11.2775 19.1554C10.5821 19.4737 9.82932 19.6403 9.06735 19.6447Z" fill="white"/>
<path d="M37.1637 12.8817C37.0956 11.9121 36.8433 10.9653 36.4209 10.0943C35.9918 9.21309 35.4037 8.42269 34.6876 7.76466C33.2194 6.41442 31.3133 5.66907 29.3384 5.67287C27.962 5.67576 26.6009 5.96771 25.3394 6.53059C24.078 7.09348 22.9432 7.91527 22.0053 8.94504C21.1711 9.83424 20.5272 10.8913 20.1148 12.049C19.7023 13.2066 19.5304 14.4394 19.6098 15.6687C19.8931 19.7094 23.318 22.8778 27.4023 22.8778C28.7841 22.8725 30.1501 22.5773 31.4157 22.0102C32.6813 21.4432 33.8195 20.6165 34.7597 19.5814C35.5934 18.6964 36.2378 17.6437 36.6517 16.4902C37.0656 15.3367 37.24 14.1078 37.1637 12.8817ZM31.7066 17.462C31.1696 18.0685 30.5165 18.556 29.7879 18.8944C29.0593 19.2328 28.2705 19.4148 27.4703 19.4293C26.4475 19.4243 25.4643 19.0254 24.7166 18.312C23.969 17.5987 23.5119 16.6234 23.4366 15.5808C23.3905 14.7553 23.5105 13.9289 23.7891 13.1526C24.0678 12.3763 24.4992 11.6666 25.0567 11.0675C25.5905 10.4656 26.2396 9.98239 26.9637 9.64774C27.6879 9.31308 28.4716 9.13415 29.2662 9.12208C30.2937 9.1226 31.2833 9.5191 32.0374 10.2325C32.7915 10.9459 33.2548 11.9237 33.3347 12.9708C33.3775 13.7934 33.2552 14.6162 32.9753 15.3887C32.6954 16.1612 32.2638 16.8669 31.7071 17.4625L31.7066 17.462Z" fill="white"/>
<path d="M55.7886 12.8817C55.7204 11.9121 55.4681 10.9653 55.0458 10.0943C54.6177 9.21246 54.0294 8.42187 53.3124 7.76466C51.8456 6.41404 49.9403 5.66858 47.9661 5.67287C46.5893 5.67604 45.2278 5.96805 43.9659 6.5309C42.704 7.09376 41.5686 7.91544 40.6299 8.94504C39.7967 9.83481 39.1536 10.8921 38.7417 12.0497C38.3298 13.2072 38.158 14.4397 38.2373 15.6687C38.5207 19.7094 41.9428 22.8778 46.0269 22.8778C47.4091 22.8728 48.7756 22.5777 50.0416 22.0106C51.3076 21.4436 52.4462 20.6168 53.3867 19.5814C54.2208 18.6968 54.8652 17.644 55.2787 16.4904C55.6923 15.3368 55.8659 14.1077 55.7886 12.8817ZM50.3314 17.462C49.7952 18.0687 49.1427 18.5564 48.4145 18.8948C47.6863 19.2332 46.8978 19.4151 46.098 19.4293C45.075 19.4253 44.0912 19.0267 43.3434 18.3132C42.5955 17.5996 42.1389 16.6238 42.0646 15.5808C42.0179 14.7555 42.1373 13.9292 42.4154 13.1529C42.6935 12.3766 43.1245 11.6668 43.6815 11.0675C44.2162 10.4659 44.8659 9.98284 45.5905 9.64822C46.3151 9.31361 47.0992 9.13452 47.8942 9.12208C48.9217 9.12194 49.9114 9.51831 50.6653 10.2319C51.4192 10.9454 51.8818 11.9236 51.9605 12.9708C52.0047 13.7936 51.8829 14.6168 51.6028 15.3895C51.3226 16.1622 50.8902 16.8678 50.3322 17.4625L50.3314 17.462Z" fill="white"/>
<path d="M114.356 13.5877C115.205 12.6765 115.585 11.4745 115.484 10.0139C115.303 7.46342 112.707 5.68085 109.173 5.68085C107.907 5.67266 106.654 5.9342 105.493 6.44872C104.332 6.96325 103.289 7.71946 102.43 8.66916C101.534 9.65794 100.849 10.8269 100.419 12.1014C99.9898 13.3759 99.8248 14.7279 99.9351 16.0712C100.232 20.2459 103.188 22.9443 107.474 22.9443C110.004 22.9443 112.422 22.137 114.029 20.7673L111.67 17.9011C110.403 18.8872 108.858 19.4287 107.265 19.4451C104.985 19.4451 103.746 18.3185 103.588 16.0962L103.547 15.4985H108.059C110.946 15.5702 113.121 14.9116 114.356 13.5877ZM103.594 12.798L103.882 12.2093C104.845 10.2632 106.663 9.14879 108.877 9.14879C110.186 9.14879 111.191 9.86828 111.259 10.8614C111.274 11.0594 111.249 11.2586 111.184 11.4459C111.119 11.6332 111.016 11.8042 110.881 11.9478C110.376 12.5037 109.39 12.798 108.031 12.798H103.594Z" fill="white"/>
<path d="M98.9324 9.3068L98.5987 8.58908C97.7506 6.76771 95.9819 5.67969 93.8651 5.67969C93.5618 5.67969 93.2453 5.68792 92.925 5.70759C91.8865 5.77385 90.8804 6.10277 89.9971 6.66479C89.1138 7.22681 88.3809 8.00431 87.8642 8.92748L87.8301 8.85629L87.7059 8.58908C87.177 7.44368 86.2409 6.54743 85.0882 6.0829C84.4146 5.8122 83.6966 5.6754 82.9728 5.67993C81.1327 5.67993 79.517 6.18923 78.4395 7.61864L77.8738 8.44791L78.1703 6.0804H74.1951L71.9991 22.6747H75.9716L77.2872 12.6714C77.5128 10.6396 79.4751 8.98031 81.6607 8.98031C82.766 8.98031 84.1256 9.43082 84.3629 11.5607C84.3668 11.5904 84.371 11.6197 84.3736 11.6494C84.3997 12.0199 84.2903 12.8198 83.8815 15.7979C83.6601 17.4166 83.3592 19.6035 82.9492 22.6745H86.8649L88.1805 12.6711C88.1908 12.5716 88.2066 12.4727 88.2277 12.375C88.5997 10.4804 90.4764 8.98007 92.5537 8.98007C93.6744 8.98007 95.0557 9.44251 95.2667 11.6494C95.2927 12.0199 95.1836 12.8198 94.7748 15.7979C94.5529 17.4166 94.2522 19.6035 93.8422 22.6745H97.7579C98.5163 17.1603 98.9385 13.9735 99.1152 12.4353C99.2911 10.3417 98.9324 9.3068 98.9324 9.3068Z" fill="white"/>
<path d="M57.8487 6.08057H57.8517L55.6527 22.6757L57.8487 6.08057Z" fill="white"/>
<path d="M48.889 25.3728C47.4055 27.6716 45.3848 29.5563 43.0097 30.8564C40.6346 32.1564 37.9799 32.8308 35.2857 32.8186C34.2614 32.819 33.2393 32.7224 32.2324 32.53L32.1211 32.5086L31.4126 36.3737L31.5237 36.3949C32.7643 36.6318 34.0236 36.7509 35.2857 36.7507C38.6175 36.764 41.9 35.9283 44.8363 34.3189C47.7727 32.7096 50.2703 30.3775 52.1034 27.5336L52.1655 27.4369L48.9514 25.2759L48.889 25.3728Z" fill="white"/>
<path d="M71.1358 8.16132L73.3009 6.07749H68.6385L65.6517 8.99509L60.8007 13.7333L60.9734 12.4408L61.8236 6.08095L62.6359 0.000488281H58.6568L57.8514 6.08095L55.6525 22.6753H59.625L60.1816 18.4418L62.83 15.9922L66.538 22.6753H70.9495L70.5994 22.0572L67.4411 16.4816L65.694 13.3979L67.9644 11.2126L71.1358 8.16132Z" fill="white"/>
</svg>
